# xmcd
#
# Track frame offsets: 
#        150
#        38922
#        66997
#        100942
#        129392
#        158047
#        162275
#        188895
#        224617
#        262150
#        277265
#
# Disc length: 4027 seconds
#
# Revision: 0
# Processed by: cddbd v1.5PL3 Copyright (c) Steve Scherf et al.
# Submitted via: ExactAudioCopy v0.95a3
#
DISCID=ab0fb90b
DTITLE=Keter Betts - Bass Buddies and Blues
DYEAR=1998
DGENRE=Blues
TTITLE0=Joy's Blues
TTITLE1=Calm Before The Storm
TTITLE2=Love For Sale
TTITLE3=Grace
TTITLE4=Some Kinda Mean
TTITLE5=908
TTITLE6=Quiet Nights
TTITLE7=One Step Up/One Step Down
TTITLE8=Pete's Blues
TTITLE9=Sophie
TTITLE10=Head Start
EXTD=
EXTT0=
EXTT1=
EXTT2=
EXTT3=
EXTT4=
EXTT5=
EXTT6=
EXTT7=
EXTT8=
EXTT9=
EXTT10=
PLAYORDER=
